#!OML:ASF F:\VICON\USERDATA\INSTALL\rory3\rory3.ASF
:FULLY-SPECIFIED
:DEGREES
1570
root 12.7383 17.7563 -11.0175 -363.568 62.2638 -360.842
lowerback 10.0626 0.22776 -2.68572
upperback 1.10795 0.100517 1.41171
thorax -4.49621 0.121186 2.97266
lowerneck -12.1783 -7.82259 -12.8888
upperneck 37.0409 -10.9204 9.80147
head 16.8179 -4.80602 4.73729
rclavicle -4.04403e-014 -7.95139e-016
rhumerus -38.7059 -17.2304 -74.6662
rradius 37.0665
rwrist 2.66737
rhand -20.0406 7.39854
rfingers 7.12502
rthumb 6.30066 -22.4878
lclavicle -4.04403e-014 -7.95139e-016
lhumerus -35.5053 10.8595 73.8877
lradius 30.0102
lwrist -3.50154
lhand -24.2996 26.6518
lfingers 7.12502
lthumb 2.18797 56.6204
rfemur -10.5178 -11.1929 21.398
rtibia 35.3208
rfoot -17.7691 -3.97721
rtoes 1.39306
lfemur -5.33521 0.222415 -21.074
ltibia 30.6666
lfoot -13.0091 23.1798
ltoes -2.85788
1571
root 12.7271 17.7612 -11.0036 -363.882 61.2828 -361.315
lowerback 10.0595 0.153815 -2.4862
upperback 1.07783 0.0260971 1.46004
thorax -4.52059 0.0817144 2.9207
lowerneck -12.2861 -7.84603 -13.9215
upperneck 37.1733 -11.0501 10.7883
head 17.1301 -4.88935 5.36768
rclavicle -6.20581e-014 2.18663e-015
rhumerus -38.5689 -17.113 -74.8559
rradius 36.9922
rwrist 2.19309
rhand -19.5002 7.28468
rfingers 7.12502
rthumb 6.82236 -22.5854
lclavicle -6.20581e-014 2.18663e-015
lhumerus -35.4052 10.9334 74.0391
lradius 30.196
lwrist -3.39996
lhand -24.3951 26.6629
lfingers 7.12502
lthumb 2.09578 56.6324
rfemur -10.3543 -10.5339 21.8551
rtibia 34.7436
rfoot -17.9506 -3.7894
rtoes 0.633776
lfemur -5.56983 0.236347 -20.7219
ltibia 31.1437
lfoot -13.1628 23.4853
ltoes -2.03355
1572
root 12.7165 17.765 -10.984 -364.141 60.1793 -361.718
lowerback 10.0019 0.211664 -2.37646
upperback 1.10719 0.121377 1.56034
thorax -4.46438 0.126561 2.95
lowerneck -12.4183 -7.86689 -13.9481
upperneck 37.1066 -11.1095 10.8724
head 17.1489 -4.91036 5.39131
rclavicle 5.10628e-015 -1.78906e-014
rhumerus -38.356 -17.0775 -74.9413
rradius 36.8243
rwrist 2.12891
rhand -19.4247 7.3176
rfingers 7.12502
rthumb 6.89515 -22.5501
lclavicle 5.10628e-015 -1.78906e-014
lhumerus -35.195 10.4688 74.5748
lradius 30.5632
lwrist -2.51409
lhand -25.2466 27.2924
lfingers 7.12502
lthumb 1.27337 57.2684
rfemur -10.2377 -9.68016 22.3044
rtibia 34.2681
rfoot -18.0067 -3.36524
rtoes 0.660597
lfemur -5.78997 0.427465 -20.3284
ltibia 31.6519
lfoot -13.1758 23.7281
ltoes -1.95317
1573
root 12.6994 17.7667 -10.9635 -364.277 59.1066 -361.96
lowerback 10.0091 0.274207 -2.43692
upperback 1.14641 0.205171 1.70136
thorax -4.434 0.169587 3.12037
lowerneck -12.4524 -7.85319 -13.3249
upperneck 36.9018 -11.1089 10.4311
head 16.9431 -4.88067 5.0527
rclavicle 6.22444e-015 7.55382e-015
rhumerus -38.1657 -17.0106 -75.006
rradius 36.6762
rwrist 2.43723
rhand -19.3134 7.57108
rfingers 7.12502
rthumb 7.00267 -22.2931
lclavicle 6.22444e-015 7.55382e-015
lhumerus -35.0445 9.86292 75.2397
lradius 31.0856
lwrist -1.27198
lhand -26.0426 28.0266
lfingers 7.12502
lthumb 0.504601 58.0057
rfemur -10.1772 -8.72092 22.6864
rtibia 33.9027
rfoot -17.9156 -2.91195
rtoes 1.03465
lfemur -6.03331 0.753892 -19.9566
ltibia 32.1975
lfoot -12.9882 23.8989
ltoes -3.21065
1574
root 12.6787 17.7727 -10.9474 -364.384 58.0872 -362.181
lowerback 10.119 0.33275 -2.40795
upperback 1.10162 0.285917 1.74735
thorax -4.54817 0.211618 3.14169
lowerneck -12.2908 -7.98245 -13.8272
upperneck 36.8874 -11.4077 10.982
head 17.0532 -5.0181 5.34496
rclavicle 9.11428e-014 -9.93923e-015
rhumerus -38.1873 -17.2227 -75.0629
rradius 36.5872
rwrist 2.80863
rhand -19.0008 7.66736
rfingers 7.12502
rthumb 7.30442 -22.1866
lclavicle 9.11428e-014 -9.93923e-015
lhumerus -34.9743 9.30313 75.6362
lradius 31.5929
lwrist -0.684531
lhand -26.1629 28.7372
lfingers 7.12502
lthumb 0.38837 58.7166
rfemur -10.1721 -7.74038 23.0628
rtibia 33.5465
rfoot -17.7068 -2.61907
rtoes 1.96557
lfemur -6.34847 0.923122 -19.5862
ltibia 32.8622
lfoot -12.6672 23.9886
ltoes -4.5739
1575
root 12.6646 17.7782 -10.9588 -364.316 57.1802 -362.239
lowerback 10.4085 0.317881 -1.77917
upperback 0.975107 0.315939 1.44495
thorax -4.83905 0.216141 2.46575
lowerneck -12.088 -8.05325 -13.1715
upperneck 36.7198 -11.6825 10.8355
head 16.8854 -5.06822 5.09431
rclavicle 1.54679e-014 -3.18055e-015
rhumerus -38.3044 -17.5499 -75.4129
rradius 36.4917
rwrist 3.12576
rhand -19.1032 7.56672
rfingers 7.12502
rthumb 7.2055 -22.2906
lclavicle 1.54679e-014 -3.18055e-015
lhumerus -34.8229 8.83655 75.5773
lradius 31.9718
lwrist -1.04697
lhand -26.5134 30.6508
lfingers 7.12502
lthumb 0.0498922 60.6305
rfemur -10.2333 -7.53837 23.1512
rtibia 33.1678
rfoot -17.4482 -1.86374
rtoes 2.24965
lfemur -6.75519 0.811743 -19.4117
ltibia 33.6721
lfoot -12.8145 23.9478
ltoes -3.85642
1576
root 12.6475 17.7836 -10.9472 -365.173 56.1394 -363.154
lowerback 10.7766 0.23629 -0.89535
upperback 0.972295 0.301942 1.3043
thorax -5.0413 0.191785 1.82148
lowerneck -12.1725 -7.9764 -12.7911
upperneck 36.7398 -11.7239 10.9343
head 16.8978 -5.02285 5.0632
rclavicle 2.57985e-014 1.98785e-015
rhumerus -38.1895 -17.5455 -76.0275
rradius 36.2639
rwrist 3.41971
rhand -19.4124 7.41706
rfingers 7.12502
rthumb 6.90705 -22.4503
lclavicle 2.57985e-014 1.98785e-015
lhumerus -34.6831 8.51843 75.4439
lradius 32.4039
lwrist -1.0407
lhand -26.3829 31.3652
lfingers 7.12502
lthumb 0.175926 61.3449
rfemur -10.0107 -7.08744 23.8667
rtibia 32.7219
rfoot -17.1014 -1.46214
rtoes 1.95874
lfemur -7.01037 0.836191 -18.5691
ltibia 34.6321
lfoot -13.3731 23.5626
ltoes -1.76397
1577
root 12.6285 17.7883 -10.9238 -366.178 55.0207 -364.176
lowerback 11.0324 0.201219 -0.475243
upperback 1.0683 0.318797 1.49879
thorax -5.08298 0.19413 1.78519
lowerneck -12.1604 -7.91276 -12.7653
upperneck 36.7068 -11.6689 10.982
head 16.8678 -4.99789 5.08863
rclavicle -1.14823e-013 -5.61567e-015
rhumerus -37.8329 -17.1841 -76.4139
rradius 35.9361
rwrist 3.53238
rhand -19.5155 7.15904
rfingers 7.12502
rthumb 6.80756 -22.7115
lclavicle -1.14823e-013 -5.61567e-015
lhumerus -34.593 8.3616 75.6748
lradius 32.9724
lwrist -0.323291
lhand -26.8315 31.8188
lfingers 7.12502
lthumb -0.257331 61.7984
rfemur -9.66909 -6.34808 24.7389
rtibia 32.241
rfoot -16.7526 -1.07965
rtoes 2.98452
lfemur -7.22277 0.912634 -17.5788
ltibia 35.6877
lfoot -13.6261 23.1881
ltoes -0.314828
1578
root 12.6129 17.7922 -10.904 -366.68 53.9089 -364.722
lowerback 11.0938 0.259811 -0.526747
upperback 1.16741 0.40763 1.78732
thorax -5.01909 0.242013 2.10276
lowerneck -11.9816 -7.97716 -12.6087
upperneck 36.5506 -11.7506 10.7514
head 16.7154 -5.05068 4.92768
rclavicle 5.69704e-014 -1.46107e-014
rhumerus -37.5051 -16.8703 -76.4808
rradius 35.6837
rwrist 3.81101
rhand -19.3154 6.94319
rfingers 7.12502
rthumb 7.00066 -22.921
lclavicle 5.69704e-014 -1.46107e-014
lhumerus -34.4772 8.53616 75.9564
lradius 33.4488
lwrist -0.141188
lhand -25.3184 28.9905
lfingers 7.12502
lthumb 1.20401 58.9668
rfemur -9.41533 -5.62693 25.3212
rtibia 31.7625
rfoot -16.4276 -0.66352
rtoes 4.0265
lfemur -7.55366 1.05673 -16.9011
ltibia 36.7941
lfoot -13.2736 22.9163
ltoes -0.605758
1579
root 12.5978 17.7949 -10.8865 -366.87 52.9138 -364.861
lowerback 11.31 0.378703 -0.658599
upperback 1.16237 0.558529 1.92809
thorax -5.15384 0.321851 2.30198
lowerneck -11.693 -8.0871 -12.4333
upperneck 36.4262 -11.9314 10.5632
head 16.5744 -5.13847 4.77094
rclavicle 1.12127e-013 -7.35503e-015
rhumerus -37.4554 -16.7703 -76.4446
rradius 35.4581
rwrist 4.14708
rhand -19.2449 7.09981
rfingers 7.12502
rthumb 7.06877 -22.7621
lclavicle 1.12127e-013 -7.35503e-015
lhumerus -34.4008 8.47205 76.197
lradius 33.7413
lwrist -0.655911
lhand -24.2132 27.2543
lfingers 7.12502
lthumb 2.27141 57.2219
rfemur -9.19419 -5.11651 25.6266
rtibia 31.4329
rfoot -16.2882 -0.354072
rtoes 3.45734
lfemur -7.8736 1.19602 -16.486
ltibia 37.8411
lfoot -12.6721 22.55
ltoes -1.81354
